<svg xmlns="http://www.w3.org/2000/svg" width="198" height="34" viewBox="0 0 125 36" fill="none">
    <g clip-path="url(#clip0_431_12603)">
        <path d="M25.6977 2.72852L20.3778 14.8939H16.7937L16.2561 6.90465L12.842 14.8939H9.25796L8.323 2.72852H11.4956L11.6857 11.5841L15.4116 2.72852H18.6839L19.2044 11.5312L22.5141 2.72852H25.6977Z" fill="#121212"/>
        <path d="M29.1072 5.08423C30.3538 5.08423 31.3407 5.42498 32.0679 6.10646C32.7951 6.78795 33.1644 7.7068 33.1759 8.86303C33.1794 9.20571 33.1507 9.54797 33.0902 9.88527C33.0385 10.1725 32.9688 10.4561 32.8813 10.7345H26.1808C26.1673 10.8436 26.1616 10.9535 26.1637 11.0633C26.1637 11.5713 26.3023 11.9593 26.5797 12.2242C26.7292 12.3607 26.9042 12.4661 27.0946 12.5346C27.285 12.6031 27.4871 12.6332 27.6892 12.6232C28.0304 12.6352 28.3684 12.5546 28.6675 12.39C28.9665 12.2254 29.2154 11.9829 29.3877 11.6882H32.5416C32.122 12.6754 31.4165 13.5145 30.5159 14.0973C29.583 14.7201 28.4835 15.0461 27.362 15.0322C26.1153 15.0322 25.116 14.6852 24.3638 13.9913C23.6117 13.2973 23.2419 12.3562 23.2543 11.1677C23.2554 10.7955 23.2904 10.4241 23.3588 10.0582C23.5089 9.10938 23.8764 8.20812 24.4324 7.42475C24.9562 6.69017 25.6516 6.09479 26.4581 5.69042C27.2815 5.28354 28.1889 5.07588 29.1072 5.08423ZM30.1809 9.22612C30.1991 9.1173 30.2111 9.00751 30.2167 8.89731C30.2295 8.69964 30.1971 8.50167 30.1221 8.31836C30.047 8.13505 29.9312 7.9712 29.7835 7.83924C29.4629 7.57458 29.055 7.43901 28.6397 7.45903C28.1482 7.45292 27.67 7.61822 27.2872 7.92651C26.8829 8.26395 26.5923 8.71774 26.455 9.22612H30.1809Z" fill="#121212"/>
        <path d="M37.2694 11.567C37.2561 11.6411 37.2503 11.7162 37.2522 11.7914C37.2444 11.8747 37.2559 11.9587 37.2859 12.0369C37.3159 12.115 37.3636 12.1851 37.4252 12.2417C37.6082 12.3491 37.8199 12.3976 38.0314 12.3804H39.0895L38.6376 14.8939H37.1307C35.1891 14.8939 34.2183 14.0795 34.2183 12.4506C34.2245 12.1424 34.2537 11.8351 34.3056 11.5312L34.999 7.68379H33.8209L34.2541 5.22331H35.4322L35.8482 2.86719H38.809L38.3929 5.22331H40.333L39.8997 7.68379H37.9566L37.2694 11.567Z" fill="#121212"/>
        <path d="M43.3513 11.567C43.3389 11.6412 43.3331 11.7163 43.3342 11.7914C43.3263 11.8747 43.3378 11.9587 43.3678 12.0369C43.3978 12.115 43.4455 12.1851 43.5071 12.2417C43.6908 12.349 43.9029 12.3974 44.1149 12.3804H45.1714L44.721 14.8939H43.2126C41.2731 14.8939 40.3028 14.0795 40.3018 12.4506C40.308 12.1424 40.3372 11.8351 40.389 11.5312L41.0809 7.68379H39.9028L40.336 5.22331H41.5141L41.9302 2.86719H44.8909L44.4748 5.22331H46.4164L45.9832 7.68379H44.0416L43.3513 11.567Z" fill="#121212"/>
        <path d="M46.2498 10.0369C46.3996 9.10173 46.7482 8.20957 47.272 7.42052C47.7407 6.70701 48.3699 6.11309 49.1092 5.68618C49.8 5.28915 50.5828 5.08013 51.3796 5.07999C51.9782 5.05981 52.5709 5.20371 53.0937 5.49607C53.5328 5.74771 53.8838 6.1286 54.0988 6.58686L54.3418 5.21714H57.3025L55.5884 14.8877H52.6277L52.888 13.5181C52.5044 13.9783 52.026 14.3503 51.4856 14.6088C50.9025 14.8895 50.2626 15.0318 49.6156 15.0249C48.9778 15.0372 48.3485 14.8756 47.7955 14.5574C47.2732 14.2438 46.8519 13.7868 46.5817 13.2407C46.2811 12.6085 46.1327 11.9147 46.1485 11.2149C46.1502 10.8201 46.1841 10.4261 46.2498 10.0369ZM53.4941 10.054C53.5268 9.8651 53.544 9.67381 53.5456 9.48211C53.5456 8.91645 53.3788 8.47078 53.0438 8.14822C52.8801 7.98655 52.6851 7.86006 52.4707 7.77645C52.2563 7.69285 52.0272 7.65392 51.7972 7.66206C51.1984 7.66541 50.623 7.89468 50.1859 8.30404C49.682 8.75304 49.3558 9.36786 49.2666 10.0369C49.234 10.2258 49.2167 10.417 49.2151 10.6087C49.203 10.8547 49.2395 11.1007 49.3227 11.3326C49.4058 11.5644 49.534 11.7776 49.6998 11.9598C49.8647 12.1198 50.0599 12.2452 50.274 12.3287C50.4881 12.4121 50.7167 12.452 50.9464 12.4459C51.5452 12.4426 52.1206 12.2133 52.5576 11.804C53.0599 11.3462 53.3904 10.7303 53.4941 10.0587V10.054Z" fill="#121212"/>
        <path d="M64.1122 5.11921C65.0825 5.11921 65.845 5.39087 66.3997 5.93419C66.9545 6.4775 67.2319 7.23431 67.2319 8.2046C67.2294 8.55347 67.195 8.90137 67.129 9.24395L66.1239 14.8942H63.1772L64.1122 9.64288C64.1454 9.47132 64.1631 9.29712 64.1652 9.1224C64.1652 8.6383 64.0265 8.26328 63.7491 7.99734C63.4717 7.73139 63.0962 7.59845 62.6225 7.59845C62.0861 7.58293 61.5645 7.77558 61.1671 8.13604C60.7509 8.53837 60.4824 9.06921 60.4051 9.64288V9.55561L59.4701 14.8942H56.5094L58.2079 5.22364H61.1686L60.9427 6.52322C61.3306 6.09165 61.8025 5.74379 62.3295 5.50098C62.889 5.24587 63.4973 5.11561 64.1122 5.11921Z" fill="#121212"/>
        <path d="M71.4595 6.59281C71.8427 6.13223 72.3212 5.7601 72.8619 5.50202C73.4396 5.22197 74.0743 5.07958 74.7163 5.08598C75.7551 5.08598 76.593 5.42673 77.2298 6.10821C77.8666 6.7897 78.1897 7.70855 78.199 8.86479C78.1968 9.25961 78.1624 9.65361 78.0962 10.0428C77.9433 10.9827 77.5945 11.88 77.0724 12.6763C76.6021 13.3921 75.9742 13.9907 75.2367 14.4262C74.5463 14.8243 73.7633 15.0339 72.9663 15.034C72.3699 15.0538 71.7787 14.9162 71.2522 14.6351C70.813 14.3834 70.4621 14.0025 70.2471 13.5443L70.0041 14.8968H67.0433L69.3137 2.07227H72.2745L71.4595 6.59281ZM75.0996 10.0413C75.1321 9.86389 75.1493 9.68404 75.151 9.50369C75.151 8.92505 74.9833 8.47469 74.6477 8.15264C74.4842 7.99067 74.2892 7.86397 74.0748 7.78035C73.8604 7.69672 73.6311 7.65798 73.4011 7.66648C72.8019 7.67006 72.226 7.89927 71.7883 8.30847C71.2858 8.76776 70.9558 9.38537 70.8533 10.0584C70.8207 10.2473 70.8035 10.4386 70.8019 10.6303C70.8019 11.196 70.9577 11.6416 71.2865 11.9642C71.4501 12.1261 71.6451 12.2527 71.8595 12.3364C72.0739 12.42 72.3031 12.4588 72.5331 12.4504C73.1319 12.447 73.7074 12.2177 74.1444 11.8084C74.6549 11.3439 74.9909 10.7186 75.0965 10.0366L75.0996 10.0413Z" fill="#121212"/>
        <path d="M81.3965 4.21753C80.9946 4.23764 80.5993 4.10834 80.287 3.85448C80.1571 3.73262 80.0544 3.58464 79.9856 3.42029C79.9169 3.25593 79.8837 3.0789 79.8881 2.9008C79.8865 2.64782 79.9398 2.39749 80.0445 2.16717C80.1491 1.93684 80.3026 1.73203 80.4943 1.56691C80.8952 1.19794 81.4237 0.999079 81.9684 1.0122C82.368 0.989521 82.7603 1.12625 83.0592 1.3924C83.1909 1.51287 83.2949 1.66058 83.3638 1.82527C83.4327 1.98996 83.4649 2.16766 83.4581 2.34605C83.4585 2.59633 83.4044 2.8437 83.2998 3.07105C83.1951 3.29839 83.0423 3.50033 82.852 3.66282C82.4567 4.0288 81.9351 4.22758 81.3965 4.21753ZM82.679 5.22265L80.9805 14.8933H78.0198L79.7183 5.22265H82.679Z" fill="#121212"/>
        <path d="M88.3604 4.9885C89.6071 4.9885 90.594 5.32921 91.3211 6.01069C92.0483 6.69218 92.4182 7.61054 92.4306 8.76574C92.4338 9.10847 92.4046 9.45071 92.3434 9.78794C92.2927 10.0752 92.2234 10.3589 92.1361 10.6372H85.4356C85.4221 10.7468 85.4164 10.8572 85.4185 10.9676C85.4185 11.4756 85.5571 11.8625 85.8345 12.1285C85.9842 12.2646 86.1592 12.3699 86.3495 12.4383C86.5399 12.5068 86.7419 12.5371 86.944 12.5274C87.2849 12.5392 87.6226 12.4585 87.9214 12.2939C88.2201 12.1293 88.4688 11.8869 88.6409 11.5924H91.7949C91.3754 12.5798 90.6698 13.4189 89.7691 14.0015C88.8362 14.6242 87.7367 14.9501 86.6152 14.9365C85.3686 14.9365 84.3692 14.59 83.6171 13.8971C82.865 13.2042 82.4956 12.2625 82.5091 11.072C82.5104 10.7003 82.5449 10.3296 82.612 9.96404C82.7621 9.01444 83.1301 8.1125 83.6872 7.32898C84.2107 6.5945 84.9062 5.99956 85.7129 5.59621C86.5356 5.18881 87.4425 4.98065 88.3604 4.9885ZM89.4357 9.13035C89.4536 9.02154 89.4651 8.91176 89.4699 8.80158C89.4831 8.60387 89.4509 8.40577 89.3758 8.2224C89.3007 8.03904 89.1847 7.87525 89.0367 7.74351C88.7164 7.47815 88.3085 7.34201 87.893 7.36174C87.402 7.35599 86.9244 7.52127 86.542 7.82922C86.1364 8.1655 85.8455 8.6197 85.7098 9.12879L89.4357 9.13035Z" fill="#121212"/>
        <path d="M96.6302 11.4693C96.6177 11.544 96.6119 11.6196 96.6131 11.6953C96.6052 11.7787 96.6168 11.8629 96.6471 11.9411C96.6774 12.0193 96.7255 12.0893 96.7876 12.1456C96.9709 12.2524 97.1823 12.3007 97.3938 12.2843H98.4503L98 14.7963H96.4915C94.552 14.7963 93.5817 13.9818 93.5807 12.3529C93.5869 12.0452 93.6161 11.7384 93.668 11.4351L94.3614 7.58769H93.1818L93.615 5.12718H94.7946L95.2091 2.76953H98.1698L97.7537 5.12718H99.6953L99.2621 7.58769H97.3268L96.6302 11.4693Z" fill="#121212"/>
        <path d="M105.282 4.9885C106.528 4.9885 107.515 5.32921 108.242 6.01069C108.97 6.69218 109.34 7.61054 109.352 8.76574C109.355 9.10847 109.326 9.45071 109.265 9.78794C109.214 10.0752 109.145 10.3589 109.057 10.6372H102.357C102.343 10.7468 102.338 10.8572 102.34 10.9676C102.34 11.4756 102.478 11.8625 102.756 12.1285C102.905 12.2646 103.08 12.3699 103.271 12.4383C103.461 12.5068 103.663 12.5371 103.865 12.5274C104.206 12.5392 104.544 12.4585 104.843 12.2939C105.141 12.1293 105.39 11.8869 105.562 11.5924H108.716C108.297 12.5798 107.591 13.4189 106.69 14.0015C105.757 14.6242 104.658 14.9501 103.537 14.9365C102.29 14.9365 101.291 14.59 100.538 13.8971C99.7863 13.2042 99.4164 12.2625 99.4289 11.072C99.4307 10.7003 99.4657 10.3295 99.5333 9.96404C99.6834 9.01444 100.051 8.1125 100.609 7.32898C101.132 6.5945 101.828 5.99956 102.634 5.59621C103.457 5.18881 104.364 4.98065 105.282 4.9885ZM106.357 9.13035C106.375 9.02154 106.386 8.91176 106.391 8.80158C106.404 8.60391 106.372 8.4059 106.297 8.22259C106.222 8.03928 106.106 7.87546 105.958 7.74351C105.638 7.47815 105.23 7.34201 104.814 7.36174C104.323 7.35599 103.846 7.52127 103.463 7.82922C103.058 8.1655 102.767 8.6197 102.631 9.12879L106.357 9.13035Z" fill="#121212"/>
        <path d="M113.522 6.87777C113.94 6.3284 114.464 5.86892 115.063 5.52676C115.62 5.20006 116.254 5.02642 116.9 5.02344L116.345 8.16022H115.532C114.792 8.16022 114.209 8.32178 113.781 8.64486C113.354 8.95651 113.07 9.51125 112.931 10.3091L112.135 14.7969H109.174L110.873 5.12783H113.834L113.522 6.87777Z" fill="#121212"/>
        <path d="M111.198 32.1874C111.113 32.1108 111.045 32.0166 111 31.9114C110.955 31.8062 110.934 31.6925 110.937 31.5781C110.935 31.4132 110.969 31.2499 111.037 31.0994C111.105 30.949 111.204 30.8149 111.328 30.7065C111.588 30.4667 111.931 30.3384 112.285 30.349C112.538 30.3359 112.786 30.422 112.977 30.589C113.063 30.6677 113.13 30.7637 113.175 30.8706C113.22 30.9775 113.242 31.0929 113.238 31.2088C113.239 31.3721 113.204 31.5335 113.137 31.6821C113.069 31.8308 112.97 31.9631 112.847 32.07C112.595 32.3068 112.26 32.4352 111.914 32.4275C111.653 32.4428 111.397 32.3568 111.198 32.1874Z" fill="#121212"/>
        <path d="M114.456 27.5206C114.758 27.0604 115.164 26.6775 115.641 26.4024C116.086 26.1459 116.591 26.0109 117.105 26.011C117.491 25.9979 117.874 26.0909 118.211 26.2797C118.496 26.4421 118.724 26.6881 118.864 26.9844L119.019 26.101H120.932L119.825 32.3368H117.914L118.082 31.4548C117.834 31.7517 117.525 31.9916 117.176 32.1581C116.8 32.3396 116.387 32.4316 115.969 32.4269C115.56 32.4347 115.156 32.3305 114.802 32.1254C114.463 31.9217 114.192 31.6244 114.019 31.2694C113.824 30.8628 113.728 30.4155 113.739 29.9646C113.741 29.7101 113.763 29.4561 113.806 29.2052C113.9 28.6038 114.122 28.0295 114.456 27.5206ZM118.501 28.8503C118.51 28.6926 118.486 28.5347 118.431 28.3866C118.376 28.2384 118.292 28.1031 118.182 27.9891C118.075 27.8853 117.948 27.8042 117.809 27.7506C117.67 27.697 117.521 27.672 117.372 27.6772C116.986 27.6779 116.613 27.8231 116.328 28.0843C116.004 28.3772 115.795 28.7752 115.736 29.2078C115.715 29.3298 115.703 29.4533 115.702 29.5771C115.693 29.7354 115.717 29.8937 115.772 30.0425C115.827 30.1913 115.911 30.3273 116.02 30.4422C116.125 30.5473 116.25 30.6299 116.387 30.6849C116.525 30.7399 116.672 30.7661 116.82 30.7619C117.208 30.7606 117.581 30.6128 117.864 30.3483C118.188 30.0517 118.401 29.6536 118.468 29.2195C118.489 29.0976 118.5 28.974 118.501 28.8503Z" fill="#121212"/>
        <path d="M123.24 30.1922C123.231 30.2399 123.227 30.2885 123.228 30.337C123.223 30.3914 123.231 30.4461 123.252 30.4967C123.272 30.5473 123.304 30.5923 123.346 30.628C123.464 30.698 123.601 30.729 123.737 30.7167H124.418L124.129 32.3374H123.15C121.897 32.3374 121.271 31.8124 121.272 30.7624C121.276 30.5639 121.294 30.3659 121.327 30.17L121.775 27.6908H121.015L121.295 26.1041H122.054L122.323 24.584H124.233L123.972 26.1041H125.223L124.944 27.6908H123.693L123.24 30.1922Z" fill="#121212"/>
        <path d="M15.4336 31.6627C14.6495 31.24 14.0053 30.5986 13.5794 29.8164C13.13 28.9742 12.9053 28.0305 12.927 27.0762C12.927 25.6209 13.2406 24.3221 13.8677 23.1799C14.473 22.0613 15.3804 21.1354 16.4866 20.5076C17.649 19.8581 18.9626 19.5277 20.2941 19.5499C21.269 19.5299 22.2334 19.7542 23.0995 20.2023C23.8853 20.6167 24.5329 21.2516 24.9628 22.0291C25.4102 22.8597 25.635 23.7921 25.6152 24.7353C25.6373 26.0987 25.3137 27.4454 24.6744 28.6498C24.0711 29.7796 23.1599 30.7153 22.0465 31.3482C20.8768 32.0056 19.5531 32.3398 18.2116 32.3164C17.245 32.3383 16.2889 32.1133 15.4336 31.6627ZM20.7325 28.9121C21.3288 28.5039 21.8043 27.9428 22.1091 27.2876C22.4365 26.597 22.6033 25.8414 22.5971 25.0772C22.5971 24.2247 22.3605 23.5562 21.8873 23.0717C21.4141 22.5871 20.7512 22.3444 19.8987 22.3436C19.1641 22.3298 18.4427 22.54 17.8306 22.9464C17.2333 23.3484 16.7551 23.9037 16.4461 24.5539C16.1157 25.243 15.9487 25.9989 15.9581 26.763C15.9581 27.6146 16.1947 28.2867 16.668 28.779C17.1412 29.2714 17.8097 29.5167 18.6735 29.5149C19.4054 29.5296 20.1241 29.3192 20.7325 28.9121ZM18.3867 18.2241C18.2845 18.1256 18.2041 18.0068 18.1506 17.8753C18.0971 17.7439 18.0718 17.6026 18.0762 17.4608C18.0737 17.2562 18.1142 17.0533 18.1951 16.8654C18.276 16.6775 18.3956 16.5087 18.5459 16.3699C18.6885 16.2254 18.8586 16.1109 19.0462 16.0331C19.2338 15.9553 19.435 15.9159 19.6381 15.9171C19.7847 15.9104 19.9311 15.9337 20.0684 15.9855C20.2057 16.0374 20.331 16.1167 20.4366 16.2186C20.5363 16.3185 20.6144 16.4378 20.6663 16.5691C20.7181 16.7003 20.7425 16.8408 20.7381 16.9819C20.7406 17.1867 20.7001 17.3897 20.6191 17.5778C20.5382 17.766 20.4187 17.935 20.2683 18.074C20.1254 18.2182 19.9553 18.3325 19.7677 18.4102C19.5802 18.488 19.3791 18.5276 19.1761 18.5268C19.031 18.532 18.8862 18.5079 18.7506 18.4559C18.615 18.4039 18.4912 18.325 18.3867 18.2241ZM21.9372 18.2241C21.835 18.1256 21.7546 18.0068 21.7011 17.8753C21.6476 17.7439 21.6222 17.6026 21.6266 17.4608C21.6241 17.2562 21.6647 17.0533 21.7456 16.8654C21.8265 16.6775 21.946 16.5087 22.0964 16.3699C22.239 16.2254 22.4091 16.1109 22.5967 16.0331C22.7843 15.9553 22.9855 15.9159 23.1885 15.9171C23.3351 15.9104 23.4816 15.9337 23.6189 15.9855C23.7562 16.0374 23.8815 16.1167 23.9871 16.2186C24.0867 16.3185 24.1649 16.4378 24.2167 16.5691C24.2685 16.7003 24.293 16.8408 24.2885 16.9819C24.291 17.1867 24.2505 17.3897 24.1696 17.5778C24.0887 17.766 23.9692 17.935 23.8188 18.074C23.6759 18.2182 23.5057 18.3325 23.3182 18.4102C23.1307 18.488 22.9296 18.5276 22.7266 18.5268C22.5815 18.532 22.4367 18.5079 22.3011 18.4559C22.1654 18.4039 22.0417 18.325 21.9372 18.2241Z" fill="#F02D2D"/>
        <path d="M38.2249 31.9648C37.6536 31.7508 37.1484 31.3909 36.7595 30.9209C36.4081 30.4869 36.2198 29.9436 36.2271 29.3852C36.2271 29.3029 36.2389 29.1542 36.2624 28.9415H39.1917C39.1731 29.1035 39.1932 29.2675 39.2503 29.4202C39.3075 29.5729 39.4001 29.7098 39.5205 29.8197C39.7632 30.0389 40.1112 30.1485 40.5644 30.1485C40.8911 30.1601 41.2153 30.0868 41.5052 29.9358C41.618 29.8805 41.7127 29.7945 41.7786 29.6875C41.8444 29.5806 41.8786 29.4572 41.8771 29.3317C41.8771 29.0837 41.744 28.8854 41.4778 28.7367C41.0517 28.5227 40.6098 28.3417 40.156 28.1952C39.6081 28.0185 39.0716 27.808 38.5498 27.5649C38.1147 27.3569 37.7344 27.0499 37.4393 26.6685C37.1209 26.245 36.9582 25.7248 36.9787 25.1953C36.975 24.6313 37.1555 24.0816 37.4928 23.6295C37.8659 23.1397 38.3665 22.7618 38.9399 22.5374C39.6257 22.2649 40.359 22.1319 41.0968 22.1459C41.8267 22.1291 42.552 22.2651 43.2263 22.5452C43.7879 22.7779 44.2736 23.1624 44.629 23.6556C44.9585 24.1225 45.1324 24.6813 45.1261 25.2527L45.1092 25.5137H42.3573C42.3755 25.3565 42.3561 25.1972 42.3005 25.049C42.2449 24.9008 42.1548 24.768 42.0376 24.6616C41.8001 24.449 41.4635 24.342 41.025 24.342C40.7294 24.33 40.4366 24.4038 40.1821 24.5546C40.0804 24.6144 39.9964 24.7002 39.9389 24.8032C39.8813 24.9061 39.8522 25.0226 39.8546 25.1405C39.8546 25.4015 39.9994 25.619 40.2891 25.7929C40.723 26.0268 41.1778 26.2199 41.6474 26.3697C42.1902 26.5441 42.7207 26.7547 43.2354 26.9999C43.6558 27.2072 44.0255 27.5043 44.3184 27.8703C44.6286 28.2671 44.7889 28.7605 44.7712 29.2638C44.7843 29.8656 44.5794 30.4517 44.1945 30.9144C43.7721 31.4018 43.2263 31.7665 42.6143 31.97C41.8811 32.2234 41.1092 32.3466 40.3335 32.3341C39.6134 32.347 38.8976 32.2216 38.2249 31.9648Z" fill="#F02D2D"/>
        <path d="M49.2837 28.7857C49.2709 28.862 49.2652 28.9393 49.2667 29.0167C49.2587 29.1028 49.2714 29.1897 49.3036 29.27C49.3358 29.3503 49.3867 29.4218 49.452 29.4786C49.6365 29.5891 49.851 29.6389 50.0653 29.6208H51.1483L50.6864 32.194H49.1414C47.1537 32.194 46.1599 31.3597 46.1599 29.6913C46.1655 29.3759 46.1952 29.0614 46.2486 28.7505L46.9584 24.8099H45.7515L46.1951 22.289H47.4021L47.8288 19.875H50.8638L50.4371 22.289H52.4257L51.9821 24.8099H49.9935L49.2837 28.7857Z" fill="#F02D2D"/>
        <path d="M61.0201 23.1874C61.7717 23.8833 62.1475 24.8271 62.1475 26.0189C62.1504 26.3688 62.1207 26.7183 62.0588 27.0627C62.0056 27.3566 61.9341 27.6468 61.8448 27.9318H54.9748C54.961 28.0439 54.9553 28.1568 54.9578 28.2697C54.9578 28.7916 55.0996 29.1879 55.3832 29.4584C55.5364 29.598 55.7157 29.706 55.9107 29.7761C56.1058 29.8462 56.3127 29.877 56.5197 29.8668C56.8691 29.8791 57.2153 29.7965 57.5215 29.6279C57.8277 29.4592 58.0826 29.2109 58.2591 28.9091H61.4898C61.0596 29.9203 60.3366 30.7796 59.4139 31.3765C58.4575 32.014 57.331 32.3478 56.1818 32.3343C54.9048 32.3343 53.8844 31.9794 53.1206 31.2695C52.3569 30.5597 51.975 29.595 51.975 28.3754C51.9761 27.9945 52.0119 27.6146 52.082 27.2402C52.2358 26.268 52.6122 25.3445 53.182 24.5418C53.7187 23.7889 54.432 23.1791 55.2592 22.7659C56.1035 22.3486 57.0342 22.1358 57.9759 22.1448C59.2538 22.1474 60.2685 22.4949 61.0201 23.1874ZM59.1111 26.058C59.1111 25.5844 58.9637 25.2216 58.6675 24.9659C58.3357 24.6997 57.918 24.5641 57.4931 24.5848C56.9942 24.5775 56.5081 24.7435 56.1178 25.0546C55.6992 25.4021 55.3984 25.8707 55.2566 26.396H59.0824C59.0987 26.2827 59.1082 26.1685 59.1111 26.0541V26.058Z" fill="#F02D2D"/>
        <path d="M34.8803 23.1874C35.6319 23.8833 36.0077 24.8271 36.0077 26.0189C36.0107 26.3688 35.981 26.7183 35.919 27.0627C35.8658 27.3566 35.7943 27.6468 35.705 27.9318H28.835C28.8212 28.0439 28.8155 28.1568 28.818 28.2697C28.818 28.7916 28.9598 29.1879 29.2434 29.4584C29.3966 29.598 29.5759 29.706 29.7709 29.7761C29.966 29.8462 30.173 29.877 30.38 29.8668C30.7293 29.8791 31.0755 29.7965 31.3817 29.6279C31.688 29.4592 31.9428 29.2109 32.1193 28.9091H35.3501C34.9198 29.9203 34.1968 30.7796 33.2741 31.3765C32.3178 32.014 31.1912 32.3478 30.042 32.3343C28.765 32.3343 27.7446 31.9794 26.9809 31.2695C26.2171 30.5597 25.8352 29.595 25.8352 28.3754C25.8363 27.9945 25.8721 27.6146 25.9422 27.2402C26.096 26.268 26.4725 25.3445 27.0422 24.5418C27.579 23.7889 28.2922 23.1791 29.1195 22.7659C29.9638 22.3486 30.8944 22.1358 31.8362 22.1448C33.114 22.1474 34.1288 22.4949 34.8803 23.1874ZM32.9714 26.058C32.9714 25.5844 32.8239 25.2216 32.5277 24.9659C32.196 24.6997 31.7782 24.5641 31.3534 24.5848C30.8544 24.5775 30.3683 24.7435 29.9781 25.0546C29.5594 25.4021 29.2586 25.8707 29.1169 26.396H32.9427C32.9589 26.2827 32.9685 26.1685 32.9714 26.0541V26.058Z" fill="#F02D2D"/>
        <path d="M67.8901 22.6899C68.4592 22.3604 69.1048 22.1858 69.7625 22.1836L69.1949 25.3974H68.3598C67.603 25.3974 67.0054 25.5601 66.567 25.8854C66.1285 26.2107 65.8388 26.7818 65.6979 27.5987L64.8811 32.1956H61.8447L63.5854 22.2906H66.6204L66.3008 24.0834C66.733 23.5183 67.2732 23.0445 67.8901 22.6899Z" fill="#F02D2D"/>
        <path d="M74.5995 22.6899C75.1692 22.3603 75.8152 22.1858 76.4733 22.1836L75.9044 25.3974H75.0706C74.3121 25.3974 73.7144 25.5601 73.2778 25.8854C72.8411 26.2107 72.551 26.7818 72.4074 27.5987L71.5906 32.1956H68.5555L70.2949 22.2906H73.3312L73.0116 24.0834C73.443 23.518 73.9828 23.0442 74.5995 22.6899Z" fill="#F02D2D"/>
        <path d="M84.4876 23.1874C85.2391 23.8833 85.615 24.8271 85.615 26.0189C85.6179 26.3688 85.5882 26.7183 85.5262 27.0627C85.4735 27.3566 85.4025 27.6468 85.3135 27.9318H78.4435C78.4291 28.0438 78.423 28.1568 78.4253 28.2697C78.4253 28.7916 78.5675 29.1879 78.852 29.4584C79.0048 29.5982 79.1838 29.7062 79.3787 29.7764C79.5735 29.8465 79.7803 29.8772 79.9872 29.8668C80.3367 29.879 80.6831 29.7964 80.9895 29.6278C81.2959 29.4592 81.5511 29.2109 81.7278 28.9091H84.9586C84.5279 29.9204 83.8044 30.7797 82.8813 31.3765C81.9254 32.014 80.7993 32.3478 79.6505 32.3343C78.3718 32.3343 77.351 31.9794 76.5881 31.2695C75.8252 30.5597 75.4437 29.595 75.4437 28.3754C75.445 27.9946 75.4804 27.6147 75.5494 27.2402C75.7031 26.2677 76.08 25.3441 76.6507 24.5418C77.187 23.7889 77.8999 23.1791 78.7267 22.7659C79.571 22.3486 80.5017 22.1358 81.4434 22.1448C82.7221 22.1474 83.7368 22.4949 84.4876 23.1874ZM82.5799 26.058C82.5799 25.5844 82.4311 25.2216 82.1362 24.9659C81.8044 24.6999 81.3867 24.5643 80.9619 24.5848C80.4625 24.5773 79.9759 24.7434 79.5853 25.0546C79.167 25.4025 78.8663 25.8709 78.7241 26.396H82.5421C82.5614 26.2829 82.574 26.1687 82.5799 26.0541V26.058Z" fill="#F02D2D"/>
        <path d="M90.0892 22.289L88.3485 32.194H85.3096L87.0489 22.289H90.0892ZM87.6478 20.8772C87.5123 20.7559 87.4047 20.6066 87.3326 20.4397C87.2605 20.2727 87.2256 20.0921 87.2303 19.9103C87.2287 19.651 87.2834 19.3944 87.3906 19.1583C87.4979 18.9222 87.6551 18.7122 87.8514 18.5428C88.2624 18.1656 88.8034 17.9622 89.3611 17.9752C89.8335 17.9752 90.2066 18.1057 90.4794 18.3562C90.6137 18.4821 90.7196 18.6353 90.79 18.8054C90.8604 18.9755 90.8938 19.1587 90.8878 19.3427C90.8881 19.5989 90.8327 19.8522 90.7255 20.085C90.6182 20.3177 90.4617 20.5243 90.2667 20.6906C89.8619 21.0662 89.3273 21.2701 88.7752 21.2595C88.3638 21.28 87.9602 21.1418 87.6478 20.8732V20.8772Z" fill="#F02D2D"/>
        <path d="M91.051 24.5437C91.5859 23.7926 92.2958 23.1831 93.1191 22.7678C93.9538 22.351 94.8755 22.1381 95.8084 22.1467C97.0523 22.1467 98.0349 22.4721 98.756 23.1228C99.4772 23.7734 99.8617 24.6907 99.9095 25.8747H96.6787C96.5482 25.1179 96.0868 24.739 95.2943 24.7382C95.0223 24.7377 94.7533 24.7957 94.5057 24.9083C94.2581 25.0209 94.0375 25.1854 93.859 25.3906C93.4562 25.8255 93.1839 26.444 93.0421 27.2461C92.9942 27.5042 92.9706 27.7664 92.9717 28.029C92.9717 28.5857 93.1022 29.0119 93.3631 29.3077C93.4965 29.4561 93.6613 29.5729 93.8454 29.6497C94.0296 29.7264 94.2286 29.7611 94.4279 29.7513C95.2108 29.7513 95.7967 29.3725 96.1855 28.6148H99.4346C99.0161 29.72 98.2733 30.6729 97.3037 31.3485C96.3389 32.0132 95.191 32.3607 94.0195 32.3427C92.7425 32.3427 91.7277 31.9909 90.9753 31.2871C90.2228 30.5834 89.847 29.6217 89.8479 28.4021C89.8495 28.0152 89.8853 27.6293 89.9549 27.2487C90.1066 26.2745 90.4817 25.3487 91.051 24.5437Z" fill="#F02D2D"/>
        <path d="M109.661 23.0175C110.223 23.5733 110.504 24.3484 110.503 25.3427C110.501 25.7002 110.465 26.0566 110.396 26.4074L109.367 32.1944H106.35L107.308 26.8159C107.341 26.6402 107.359 26.4621 107.361 26.2835C107.361 25.7859 107.222 25.4014 106.944 25.13C106.666 24.8586 106.278 24.7224 105.781 24.7216C105.232 24.7057 104.697 24.903 104.29 25.2722C103.888 25.6393 103.627 26.1539 103.507 26.8159V26.7806L102.548 32.1944H99.5128L101.838 19.0586H104.882L104.084 23.6033C104.482 23.1569 104.971 22.801 105.519 22.5595C106.099 22.3031 106.727 22.1732 107.361 22.1785C108.332 22.1785 109.099 22.4581 109.661 23.0175Z" fill="#F02D2D"/>
        <path opacity="0.2" fill-rule="evenodd" clip-rule="evenodd" d="M12.165 19.8516L10.3069 23.0693H7.17661L8.11218 21.4487H4.98187L0.597616 29.0415L0.534984 29.1524H3.66529L0 35.4992H3.13031L4.9623 32.3258H8.09261L13.0901 23.6695L15.2953 19.8516H12.165Z" fill="#121212"/>
        <path fill-rule="evenodd" clip-rule="evenodd" d="M12.4142 18.0098L7.1087 27.1997L5.21277 30.484H8.34177L13.3406 21.8277L15.5445 18.0098H12.4142Z" fill="#F02D2D"/>
        <path fill-rule="evenodd" clip-rule="evenodd" d="M7.42588 21.2266L0.249268 33.6564H3.37957L10.5562 21.2266H7.42588Z" fill="white"/>
        <path fill-rule="evenodd" clip-rule="evenodd" d="M5.23107 19.6074L0.848116 27.2003L0.78418 27.3112H3.91449L7.08002 21.8283L8.36137 19.6074H5.23107Z" fill="#F02D2D"/>
    </g>
    <defs>
        <clipPath id="clip0_431_12603">
            <rect width="125" height="35" fill="white" transform="translate(0 0.5)"/>
        </clipPath>
    </defs>
</svg>
